<svg width="48" height="48" viewBox="0 0 48 48" fill="none" xmlns="http://www.w3.org/2000/svg">
<rect width="48" height="48" rx="24" fill="black"/>
<path d="M24 8C32.84 8 40 15.1117 40 23.8921C39.9982 30.7197 35.6129 36.7858 29.1 38.9696C28.3 39.1286 28 38.6319 28 38.2148C28 37.6784 28.02 35.97 28.02 33.8445C28.02 32.3546 27.52 31.401 26.94 30.9044C30.5 30.5071 34.24 29.1563 34.24 23.0577C34.24 21.3096 33.62 19.8992 32.6 18.7867C32.76 18.3894 33.32 16.7605 32.44 14.5753C32.44 14.5753 31.1 14.1383 28.04 16.2043C26.76 15.8467 25.4 15.6679 24.04 15.6679C22.68 15.6679 21.32 15.8467 20.04 16.2043C16.98 14.1582 15.64 14.5753 15.64 14.5753C14.76 16.7605 15.32 18.3894 15.48 18.7867C14.46 19.8992 13.84 21.3295 13.84 23.0577C13.84 29.1364 17.56 30.5071 21.12 30.9044C20.66 31.3017 20.24 31.997 20.1 33.03C19.18 33.4472 16.88 34.1226 15.44 31.7189C15.14 31.2421 14.24 30.0701 12.98 30.09C11.64 30.1098 12.44 30.8448 13 31.1428C13.68 31.5202 14.46 32.9307 14.64 33.3876C14.96 34.2815 16 35.9899 20.02 35.2549C20.02 36.5858 20.04 37.8373 20.04 38.2148C20.04 38.6319 19.74 39.1087 18.94 38.9696C12.4044 36.8089 7.99639 30.7338 8 23.8921C8 15.1117 15.16 8 24 8V8Z" fill="white"/>
</svg>
