<svg width="48" height="48" viewBox="0 0 48 48" fill="none" xmlns="http://www.w3.org/2000/svg">
<rect width="48" height="48" rx="24" fill="#F6F8FC"/>
<path d="M39.36 24.3635C39.36 23.229 39.2582 22.1381 39.0691 21.0908H24V27.2799H32.6109C32.24 29.2799 31.1127 30.9745 29.4182 32.109V36.1235H34.5891C37.6145 33.3381 39.36 29.2363 39.36 24.3635Z" fill="#4285F4"/>
<path d="M23.9998 40C28.3198 40 31.9417 38.5673 34.5889 36.1237L29.418 32.1091C27.9853 33.0691 26.1526 33.6364 23.9998 33.6364C19.8326 33.6364 16.3053 30.8219 15.0471 27.04H9.70166V31.1855C12.3344 36.4146 17.7453 40 23.9998 40Z" fill="#34A853"/>
<path d="M15.0473 27.0399C14.7273 26.0799 14.5455 25.0545 14.5455 23.9999C14.5455 22.9454 14.7273 21.9199 15.0473 20.9599V16.8145H9.70182C8.61818 18.9745 8 21.4181 8 23.9999C8 26.5817 8.61818 29.0254 9.70182 31.1854L15.0473 27.0399Z" fill="#FBBC05"/>
<path d="M23.9998 14.3636C26.3489 14.3636 28.458 15.1709 30.1162 16.7564L34.7053 12.1673C31.9344 9.58545 28.3126 8 23.9998 8C17.7453 8 12.3344 11.5855 9.70166 16.8145L15.0471 20.96C16.3053 17.1782 19.8326 14.3636 23.9998 14.3636Z" fill="#EA4335"/>
</svg>
